<?xml version="1.0" standalone="no"?>
<!DOCTYPE svg PUBLIC "-//W3C//DTD SVG 20010904//EN" "http://www.w3.org/TR/2001/REC-SVG-20010904/DTD/svg10.dtd">
<svg xmlns="http://www.w3.org/2000/svg" version="1.0" width="3.5rem" height="3.5rem" viewBox="0 0 114.000000 114.000000" preserveAspectRatio="xMidYMid meet">
  <g transform="translate(0.000000,114.000000) scale(0.100000,-0.100000)" fill="currentColor" stroke="none">
    <path d="M263 860 c-13 -5 -23 -15 -23 -22 0 -7 35 -48 77 -90 l78 -78 -56 0   c-50 0 -65 6 -155 60 -100 61 -140 72 -150 45 -7 -18 71 -187 96 -210 10 -9   76 -26 160 -40 78 -13 145 -26 147 -29 3 -3 -33 -51 -81 -108 -47 -57 -86   -111 -86 -120 0 -9 9 -20 20 -23 51 -16 106 7 305 129 l200 123 90 7 c97 7   187 27 211 47 31 25 12 53 -64 92 l-74 39 -127 -1 -128 -1 -169 91 c-171 92   -224 110 -271 89z m225 -97 l146 -78 -54 -7 c-137 -16 -136 -16 -222 69 -43   43 -78 81 -78 85 0 5 14 8 31 8 20 0 85 -29 177 -77z m-296 -72 l87 -53 327   10 327 10 75 -34 c43 -20 72 -39 70 -46 -8 -22 -101 -39 -245 -45 -79 -3 -143   -10 -143 -14 0 -5 11 -9 25 -9 14 0 25 -3 25 -7 -1 -11 -329 -210 -368 -224   -17 -6 -40 -9 -51 -7 -17 2 -4 22 79 122 55 66 99 121 97 122 -1 1 -72 14   -157 29 -85 14 -164 30 -176 35 -12 5 -37 42 -62 95 -23 48 -42 89 -42 92 0 3   10 -1 23 -9 12 -8 61 -38 109 -67z"/>
    <path d="M557 614 c-11 -11 -8 -44 3 -44 15 0 24 30 13 41 -5 5 -12 6 -16 3z"/>
    <path d="M634 606 c-4 -10 -2 -22 4 -28 8 -8 13 -7 18 6 4 10 2 22 -4 28 -8 8   -13 7 -18 -6z"/>
    <path d="M714 605 c-3 -8 -3 -19 1 -25 11 -18 25 -11 25 15 0 27 -17 34 -26   10z"/>
    <path d="M800 601 c0 -11 5 -23 10 -26 6 -4 10 5 10 19 0 14 -4 26 -10 26 -5   0 -10 -9 -10 -19z"/>
    <path d="M880 600 c0 -11 7 -20 15 -20 8 0 15 9 15 20 0 11 -7 20 -15 20 -8 0   -15 -9 -15 -20z"/>
    <path d="M380 590 c0 -11 7 -20 15 -20 8 0 15 9 15 20 0 11 -7 20 -15 20 -8 0   -15 -9 -15 -20z"/>
    <path d="M465 600 c-7 -12 2 -30 16 -30 5 0 9 9 9 20 0 21 -15 27 -25 10z"/>
  </g>
</svg>
