<?xml version="1.0" standalone="no"?>
<!DOCTYPE svg PUBLIC "-//W3C//DTD SVG 20010904//EN" "http://www.w3.org/TR/2001/REC-SVG-20010904/DTD/svg10.dtd">
<svg xmlns="http://www.w3.org/2000/svg" version="1.0" width="3.5rem" height="3.5rem" viewBox="0 0 114.000000 114.000000" preserveAspectRatio="xMidYMid meet">
  <g transform="translate(0.000000,114.000000) scale(0.100000,-0.100000)" fill="currentColor" stroke="none">
    <path d="M50 820 c-19 -19 -20 -33 -20 -219 0 -212 4 -231 50 -231 10 0 23 -12 30 -30 16 -39 51 -60 97 -60 47 0 76 19 93 60 l12 30 87 0 c212 0 431 -13 431 -26 0 -7 14 -24 31 -38 55 -47 131 -31 164 35 9 17 24 29 35 29 46 0 50 19 50 231 0 186 -1 200 -20 219 -19 19 -33 20 -520 20 -487 0 -501 -1 -520 -20z m1025 -20 c4 -7 -167 -10 -505 -10 -338 0 -509 3 -505 10 8 14 1002 14 1010 0z m-855 -110 l0 -70 -80 0 -80 0 0 70 0 70 80 0 80 0 0 -70z m190 0 l0 -70 -80 0 -80 0 0 70 0 70 80 0 80 0 0 -70z m198 3 l-3 -68 -82 -3 -83 -3 0 71 0 70 85 0 86 0 -3 -67z m212 -113 l0 -180 -95 0 -95 0 0 180 0 180 95 0 95 0 0 -180z m260 110 l0 -70 -115 0 -115 0 0 70 0 70 115 0 115 0 0 -70z m-472 -197 l-3 -98 -146 -3 -145 -3 -15 33 c-32 74 -138 83 -179 15 -11 -18 -21 -36 -23 -42 -2 -6 -11 -4 -20 4 -14 11 -17 32 -17 102 l0 89 275 0 276 0 -3 -97z m472 9 c0 -85 -8 -112 -35 -112 -5 0 -17 15 -25 33 -9 19 -30 39 -51 50 -33 16 -41 16 -78 3 l-41 -14 0 64 0 64 115 0 115 0 0 -88z m-817 -74 c32 -39 20 -94 -27 -113 -69 -29 -131 40 -95 106 22 42 89 46 122 7z m711 11 c19 -15 26 -30 26 -54 0 -74 -80 -106 -127 -51 -26 30 -28 44 -12 80 21 46 72 57 113 25z"/>
    <path d="M715 580 c-3 -6 0 -13 9 -16 22 -8 59 -1 64 14 5 15 -64 17 -73 2z"/>
    <path d="M182 414 c-38 -26 -22 -74 24 -74 45 0 58 50 19 76 -18 12 -24 11 -43 -2z"/>
    <path d="M912 423 c-7 -3 -17 -13 -22 -24 -23 -43 39 -82 70 -45 26 32 -8 82 -48 69z"/>
  </g>
</svg>
