<?xml version="1.0" standalone="no"?>
<!DOCTYPE svg PUBLIC "-//W3C//DTD SVG 20010904//EN" "http://www.w3.org/TR/2001/REC-SVG-20010904/DTD/svg10.dtd">
<svg xmlns="http://www.w3.org/2000/svg" version="1.0" width="3.5rem" height="3.5rem" viewBox="0 0 114.000000 114.000000" preserveAspectRatio="xMidYMid meet">
  <g transform="translate(0.000000,114.000000) scale(0.100000,-0.100000)" fill="currentColor" stroke="none">
    <path d="M377 834 c-4 -4 -7 -24 -7 -44 0 -36 -1 -38 -41 -43 -34 -4 -53 -17 -103 -66 -53 -52 -67 -61 -98 -61 -59 0 -77 -23 -89 -119 -16 -119 0 -141 101 -141 15 0 36 -10 50 -25 31 -33 83 -42 126 -21 19 9 37 23 40 31 5 13 37 15 201 15 l195 0 35 -30 c47 -41 99 -41 146 0 19 17 46 30 60 30 40 0 78 18 84 40 3 11 12 20 19 20 10 0 14 13 14 45 0 33 -4 45 -15 45 -10 0 -15 10 -15 29 0 30 -22 61 -43 61 -7 0 -70 5 -140 11 l-128 12 -50 58 c-37 43 -60 60 -84 65 -31 6 -34 9 -37 48 l-3 41 -106 3 c-58 1 -108 -1 -112 -4z m53 -39 c0 -8 -9 -15 -20 -15 -11 0 -20 7 -20 15 0 8 9 15 20 15 11 0 20 -7 20 -15z m54 0 c-4 -8 -10 -15 -15 -15 -5 0 -9 -7 -9 -15 0 -8 -7 -15 -15 -15 -8 0 -15 7 -15 15 0 8 5 15 10 15 6 0 10 7 10 15 0 8 9 15 20 15 13 0 18 -5 14 -15z m56 0 c0 -8 7 -15 15 -15 8 0 15 -7 15 -15 0 -8 -7 -15 -15 -15 -8 0 -15 7 -15 15 0 8 -7 15 -15 15 -8 0 -15 -7 -15 -15 0 -8 -7 -15 -15 -15 -8 0 -15 7 -15 15 0 8 7 15 15 15 8 0 15 7 15 15 0 8 7 15 15 15 8 0 15 -7 15 -15z m-80 -125 l0 -50 -127 0 -127 0 49 50 49 50 78 0 78 0 0 -50z m211 23 c13 -16 33 -38 43 -50 l19 -23 -121 0 -122 0 0 50 0 50 78 0 c73 0 80 -2 103 -27z m249 -112 c65 -6 65 -6 68 -40 l3 -33 -48 7 c-108 15 -130 12 -166 -23 l-33 -32 -180 0 c-171 0 -182 1 -200 21 -53 58 -125 62 -179 9 -28 -27 -38 -31 -76 -28 l-44 3 4 45 c6 87 -27 80 404 79 210 -1 411 -4 447 -8z m130 -30 c16 -31 12 -41 -15 -41 -21 0 -25 5 -25 30 0 35 23 41 40 11z m-132 -84 c29 -27 30 -82 0 -114 -49 -52 -138 -15 -138 56 1 81 78 113 138 58z m-589 -3 c28 -36 27 -79 -4 -109 -49 -50 -135 -17 -135 53 0 50 32 82 81 82 29 0 42 -6 58 -26z m751 1 c0 -8 -6 -15 -14 -15 -9 0 -16 -12 -18 -27 -2 -23 -9 -29 -34 -31 -27 -3 -32 1 -37 25 -3 15 -9 36 -12 46 -6 15 0 17 54 17 48 0 61 -3 61 -15z m-930 -51 c0 -23 -3 -25 -42 -22 -36 2 -44 7 -46 26 -3 20 1 22 42 22 43 0 46 -2 46 -26z m590 1 l0 -25 -174 0 c-175 0 -194 4 -182 35 4 12 37 15 181 15 l175 0 0 -25z"/>
    <path d="M520 535 c0 -10 11 -15 35 -15 24 0 35 5 35 15 0 10 -11 15 -35 15 -24 0 -35 -5 -35 -15z"/>
    <path d="M830 435 c-14 -17 -5 -51 15 -59 35 -13 63 21 45 55 -13 23 -43 25 -60 4z"/>
    <path d="M240 435 c-6 -8 -9 -23 -5 -34 9 -29 36 -35 58 -13 16 16 17 23 8 41 -13 24 -43 28 -61 6z m40 -19 c0 -3 -4 -8 -10 -11 -5 -3 -10 -1 -10 4 0 6 5 11 10 11 6 0 10 -2 10 -4z"/>
  </g>
</svg>
