<?xml version="1.0" standalone="no"?>
<!DOCTYPE svg PUBLIC "-//W3C//DTD SVG 20010904//EN" "http://www.w3.org/TR/2001/REC-SVG-20010904/DTD/svg10.dtd">
<svg xmlns="http://www.w3.org/2000/svg" version="1.0" width="3.5rem" height="3.5rem" viewBox="0 0 114.000000 114.000000" preserveAspectRatio="xMidYMid meet">
  <g transform="translate(0.000000,114.000000) scale(0.100000,-0.100000)" fill="currentColor" stroke="none">
    <path d="M30 620 l0 -220 35 0 c28 0 37 -5 45 -24 24 -64 109 -88 161 -47 24 19 25 19 48 0 28 -23 97 -25 127 -4 12 8 27 28 34 45 12 28 16 30 66 30 49 0 55 -2 69 -29 31 -62 107 -81 158 -40 l27 20 22 -20 c47 -44 147 -17 162 44 6 22 11 25 56 25 39 0 52 4 60 19 13 25 13 127 0 151 -17 32 -251 232 -295 251 -36 17 -73 19 -407 19 l-368 0 0 -220z m768 173 l37 -18 -65 -3 c-35 -2 -70 -8 -77 -14 -16 -13 -17 -110 -1 -126 8 -8 60 -12 167 -12 l155 0 33 -32 c30 -29 33 -37 33 -94 0 -47 -4 -63 -16 -68 -9 -3 -104 -6 -211 -6 l-196 0 -152 150 -152 150 -92 0 c-70 0 -92 -3 -89 -12 3 -9 35 -15 91 -18 l87 -5 132 -132 133 -133 -278 0 -277 0 0 195 0 195 350 0 c312 0 355 -2 388 -17z m127 -98 l50 -44 -132 -1 -133 0 0 45 0 45 83 0 82 0 50 -45z m-739 -310 c4 -8 13 -15 20 -15 8 0 17 7 20 15 6 15 54 22 54 7 0 -18 -31 -50 -55 -56 -38 -10 -84 19 -85 52 0 17 39 15 46 -3z m180 0 c4 -8 12 -15 19 -15 7 0 15 7 19 15 5 15 37 21 49 9 11 -11 -5 -35 -35 -50 -25 -13 -35 -13 -59 -3 -30 12 -53 41 -42 53 12 12 44 6 49 -9z m327 -2 c18 -17 19 -17 32 0 14 20 55 23 55 4 0 -23 -38 -50 -70 -50 -32 0 -70 27 -70 50 0 18 30 16 53 -4z m180 0 c18 -17 19 -17 32 0 13 17 55 24 55 8 0 -17 -35 -50 -60 -56 -29 -7 -80 26 -80 51 0 19 29 18 53 -3z"/>
    <path d="M522 758 c-17 -17 -15 -113 2 -127 8 -7 32 -11 53 -9 l38 3 3 64 c2 45 -1 67 -10 72 -19 13 -72 11 -86 -3z m73 -63 c0 -36 -3 -40 -27 -43 -27 -3 -28 -2 -28 43 0 45 1 46 28 43 24 -3 27 -7 27 -43z"/>
    <path d="M120 575 c0 -11 12 -15 50 -15 38 0 50 4 50 15 0 11 -12 15 -50 15 -38 0 -50 -4 -50 -15z"/>
    <path d="M120 500 c0 -5 23 -10 50 -10 28 0 50 5 50 10 0 6 -22 10 -50 10 -27 0 -50 -4 -50 -10z"/>
  </g>
</svg>
