<?xml version="1.0" standalone="no"?>
<!DOCTYPE svg PUBLIC "-//W3C//DTD SVG 20010904//EN" "http://www.w3.org/TR/2001/REC-SVG-20010904/DTD/svg10.dtd">
<svg xmlns="http://www.w3.org/2000/svg" version="1.0" width="3.5rem" height="3.5rem" viewBox="0 0 114.000000 114.000000" preserveAspectRatio="xMidYMid meet">
  <g transform="translate(0.000000,114.000000) scale(0.100000,-0.100000)" fill="currentColor" stroke="none">
    <path d="M177 886 c-3 -8 20 -25 65 -47 71 -34 71 -34 37 -39 -26 -4 -35 -10 -37 -27 -3 -22 -8 -23 -88 -23 -125 0 -124 1 -124 -203 0 -146 2 -166 18 -180 10 -10 26 -17 35 -17 8 0 18 -9 22 -20 10 -31 63 -70 96 -70 44 0 84 25 99 60 l12 30 254 0 254 0 10 -24 c25 -68 119 -88 171 -37 16 16 29 37 29 45 0 10 9 16 23 16 51 0 57 23 57 198 0 149 -2 164 -20 182 -19 19 -33 20 -298 20 l-277 0 -10 23 c-8 19 -20 23 -75 27 -51 5 -84 16 -157 52 -66 35 -93 44 -96 34z m303 -126 c0 -6 -42 -10 -105 -10 -63 0 -105 4 -105 10 0 6 42 10 105 10 63 0 105 -4 105 -10z m595 -50 c4 -7 -167 -10 -505 -10 -338 0 -509 3 -505 10 8 14 1002 14 1010 0z m-885 -90 l0 -50 -65 0 -65 0 0 50 0 50 65 0 65 0 0 -50z m180 0 l0 -50 -75 0 -75 0 0 50 0 50 75 0 75 0 0 -50z m360 0 l0 -50 -165 0 -165 0 0 50 0 50 165 0 165 0 0 -50z m180 0 l0 -50 -75 0 -75 0 0 50 0 50 75 0 75 0 0 -50z m170 0 l0 -50 -70 0 -70 0 0 50 0 50 70 0 70 0 0 -50z m0 -95 c0 -8 -9 -15 -20 -15 -46 0 -46 -71 1 -85 25 -8 21 -39 -6 -42 -13 -2 -27 8 -40 30 -11 17 -34 38 -50 46 -43 21 -104 -2 -125 -46 l-15 -33 -256 0 -256 0 -11 25 c-21 46 -68 65 -159 65 l-83 0 0 35 0 35 510 0 c447 0 510 -2 510 -15z m0 -61 c0 -9 -5 -14 -12 -12 -18 6 -21 28 -4 28 9 0 16 -7 16 -16z m-965 -55 c-20 -37 -49 -36 -53 4 -3 25 -1 27 33 27 l36 0 -16 -31z m140 6 c71 -70 -29 -171 -102 -103 -50 47 -14 125 60 127 10 1 29 -10 42 -24z m719 4 c33 -26 36 -79 6 -109 -30 -30 -83 -27 -109 6 -28 35 -26 69 4 99 30 30 64 32 99 4z"/>
    <path d="M176 394 c-30 -30 -13 -74 29 -74 42 0 59 44 29 74 -8 9 -22 16 -29 16 -7 0 -21 -7 -29 -16z"/>
    <path d="M895 390 c-37 -41 24 -97 63 -58 18 18 14 56 -7 68 -27 14 -35 13 -56 -10z"/>
  </g>
</svg>
