<?xml version="1.0" standalone="no"?>
<!DOCTYPE svg PUBLIC "-//W3C//DTD SVG 20010904//EN" "http://www.w3.org/TR/2001/REC-SVG-20010904/DTD/svg10.dtd">
<svg xmlns="http://www.w3.org/2000/svg" version="1.0" width="3.5rem" height="3.5rem" viewBox="0 0 114.000000 114.000000" preserveAspectRatio="xMidYMid meet">
  <g transform="translate(0.000000,114.000000) scale(0.100000,-0.100000)" fill="currentColor" stroke="none">
    <path d="M285 840 c-107 -122 -117 -143 -92 -186 7 -12 88 -103 180 -203 l168 -181 -165 0 c-141 0 -166 -2 -166 -15 0 -13 42 -15 318 -15 289 0 321 2 357 19 65 31 105 74 105 115 0 52 -32 81 -125 113 l-79 28 -42 100 -42 100 -138 122 c-77 67 -147 123 -156 123 -10 0 -64 -53 -123 -120z m207 -55 c40 -74 76 -135 80 -135 4 0 30 9 58 19 50 19 50 19 61 0 13 -25 4 -39 -27 -39 -15 0 -24 -6 -24 -16 0 -13 7 -15 40 -9 32 5 40 4 40 -8 0 -8 -11 -18 -25 -21 -37 -9 -30 -24 12 -28 44 -4 56 -25 17 -30 -47 -5 -41 -28 8 -28 24 0 65 -8 92 -19 l49 -18 -65 -5 c-57 -5 -74 -11 -126 -48 l-61 -43 -78 83 c-43 45 -80 87 -81 91 -2 5 8 23 22 40 22 26 24 34 14 52 -6 12 -40 72 -75 134 -34 62 -63 115 -63 119 0 13 43 54 51 48 4 -2 41 -65 81 -139z m161 -71 c1 -4 -15 -13 -35 -20 l-37 -13 -34 62 c-77 139 -78 138 17 54 48 -41 88 -79 89 -83z m-245 13 c34 -60 62 -115 62 -121 0 -7 -8 -21 -19 -30 -18 -16 -22 -13 -106 78 -48 52 -87 98 -87 101 -1 15 75 96 82 88 4 -4 35 -57 68 -116z m3 -187 c94 -102 177 -192 185 -200 11 -12 50 -16 172 -20 l157 -5 -36 -23 c-33 -20 -49 -22 -172 -22 l-136 0 -178 191 c-98 105 -182 198 -186 206 -11 17 0 66 13 61 5 -2 86 -86 181 -188z m547 -153 c2 -16 -2 -29 -10 -32 -8 -3 -74 -4 -148 -3 l-135 3 50 33 c48 32 52 33 145 30 l95 -3 3 -28z"/>
  </g>
</svg>
