<svg xmlns="http://www.w3.org/2000/svg" version="1.1" xmlns:xlink="http://www.w3.org/1999/xlink" xmlns:svgjs="http://svgjs.com/svgjs" width="1000" height="1000"><style>
    #light-icon {
      display: inline;
    }
    #dark-icon {
      display: none;
    }

    @media (prefers-color-scheme: dark) {
      #light-icon {
        display: none;
      }
      #dark-icon {
        display: inline;
      }
    }
  </style><g id="light-icon"><svg xmlns="http://www.w3.org/2000/svg" version="1.1" xmlns:xlink="http://www.w3.org/1999/xlink" xmlns:svgjs="http://svgjs.com/svgjs" width="1000" height="1000"><rect width="1000" height="1000" rx="250" ry="250" fill="#394f7f"></rect><g transform="matrix(8,0,0,8,100,100)"><svg xmlns="http://www.w3.org/2000/svg" version="1.1" xmlns:xlink="http://www.w3.org/1999/xlink" xmlns:svgjs="http://svgjs.com/svgjs" width="100" height="100"><svg width="100" height="100" viewBox="0 0 100 100" fill="none" xmlns="http://www.w3.org/2000/svg">
<g clip-path="url(#clip0_6_82)">
<rect width="100" height="100" fill="#394F7F"></rect>
<path d="M87.6835 36.6667L54.7313 20.602C53.9472 20.2198 53.0355 20.1977 52.2339 20.5416L14.6475 36.6667L90.0144 70.9375L54.8052 89.3168C53.9799 89.7476 53.0014 89.7709 52.1567 89.3798L12.3165 70.9375M104 77.3958L-4 28.6806" stroke="#2F3B5B" stroke-width="17" stroke-linecap="round"></path>
<path d="M87.6835 32.1667L54.7313 16.102C53.9472 15.7198 53.0355 15.6977 52.2339 16.0416L14.6475 32.1667L90.0144 66.4375L54.8052 84.8168C53.9799 85.2476 53.0014 85.2709 52.1567 84.8798L12.3165 66.4375M104 72.8958L-4 24.1806" stroke="#8293BF" stroke-width="17" stroke-linecap="round"></path>
</g>
<defs>
<clipPath id="clip0_6_82">
<rect width="100" height="100" fill="white"></rect>
</clipPath>
</defs>
</svg></svg></g></svg></g><g id="dark-icon"><svg xmlns="http://www.w3.org/2000/svg" version="1.1" xmlns:xlink="http://www.w3.org/1999/xlink" xmlns:svgjs="http://svgjs.com/svgjs" width="1000" height="1000"><rect width="1000" height="1000" rx="250" ry="250" fill="#1b1b1b"></rect><g transform="matrix(8,0,0,8,100,100)"><svg xmlns="http://www.w3.org/2000/svg" version="1.1" xmlns:xlink="http://www.w3.org/1999/xlink" xmlns:svgjs="http://svgjs.com/svgjs" width="100" height="100"><svg width="100" height="100" viewBox="0 0 100 100" fill="none" xmlns="http://www.w3.org/2000/svg">
<g clip-path="url(#clip0_6_106)">
<rect width="100" height="100" fill="#1B1B1B"></rect>
<path d="M87.6835 36.6667L54.7313 20.602C53.9472 20.2198 53.0355 20.1977 52.2339 20.5416L14.6475 36.6667L90.0144 70.9375L54.8052 89.3168C53.9799 89.7476 53.0014 89.7709 52.1567 89.3798L12.3165 70.9375M104 77.3958L-4 28.6806" stroke="#313131" stroke-width="17" stroke-linecap="round"></path>
<path d="M87.6835 32.1667L54.7313 16.102C53.9472 15.7198 53.0355 15.6977 52.2339 16.0416L14.6475 32.1667L90.0144 66.4375L54.8052 84.8168C53.9799 85.2476 53.0014 85.2709 52.1567 84.8798L12.3165 66.4375M104 72.8958L-4 24.1806" stroke="#4D4D4D" stroke-width="17" stroke-linecap="round"></path>
</g>
<defs>
<clipPath id="clip0_6_106">
<rect width="100" height="100" fill="white"></rect>
</clipPath>
</defs>
</svg></svg></g></svg></g></svg>